<svg width="255" height="82" viewBox="0 0 255 82" fill="none" xmlns="http://www.w3.org/2000/svg">
<path d="M30.016 46.224H13.376C13.376 48.912 13.376 51.3653 13.376 53.584C13.376 55.76 13.3973 57.808 13.44 59.728H33.216V66H4.544C4.58667 63.952 4.62933 62.16 4.672 60.624C4.75733 59.0453 4.82133 57.424 4.864 55.76C4.90667 54.0533 4.94933 52.112 4.992 49.936C5.03467 47.76 5.056 45.0293 5.056 41.744C5.056 38.4587 5.03467 35.088 4.992 31.632C4.94933 28.1333 4.864 24.656 4.736 21.2H32V27.472H13.504C13.4187 29.136 13.376 31.0347 13.376 33.168C13.376 35.2587 13.376 37.648 13.376 40.336H30.016V46.224ZM37.49 52.112C37.49 48.912 37.8313 46.1387 38.514 43.792C39.2393 41.4027 40.242 39.44 41.522 37.904C42.802 36.3253 44.2953 35.152 46.002 34.384C47.7513 33.616 49.65 33.232 51.698 33.232C53.0207 33.232 54.1087 33.36 54.962 33.616C55.858 33.8293 56.8393 33.936 57.906 33.936C58.3753 33.936 58.8233 33.8933 59.25 33.808C59.6767 33.7227 60.3167 33.552 61.17 33.296L61.874 45.712L55.602 46.544C55.6447 46.1173 55.666 45.7333 55.666 45.392C55.7087 45.008 55.73 44.6027 55.73 44.176C55.73 41.8293 55.3033 40.1653 54.45 39.184C53.6393 38.16 52.7647 37.648 51.826 37.648C49.778 37.648 48.2633 38.7147 47.282 40.848C46.3007 42.9813 45.81 46.1173 45.81 50.256C45.81 53.7547 46.3647 56.272 47.474 57.808C48.626 59.344 50.29 60.112 52.466 60.112C53.9593 60.112 55.4313 59.856 56.882 59.344C58.3753 58.7893 59.6767 58.2773 60.786 57.808V63.44C59.4207 64.6773 57.778 65.5307 55.858 66C53.9807 66.512 52.0607 66.768 50.098 66.768C48.5193 66.768 46.962 66.576 45.426 66.192C43.9327 65.808 42.5887 65.104 41.394 64.08C40.242 63.0133 39.3033 61.52 38.578 59.6C37.8527 57.68 37.49 55.184 37.49 52.112ZM80.7665 38.48C78.7612 38.48 77.2252 39.5467 76.1585 41.68C75.0918 43.7707 74.5585 46.6507 74.5585 50.32C74.5585 53.904 74.9852 56.6987 75.8385 58.704C76.7345 60.6667 78.2705 61.648 80.4465 61.648C82.4518 61.648 84.0092 60.56 85.1185 58.384C86.2278 56.1653 86.7825 53.2213 86.7825 49.552C86.7825 47.8453 86.6972 46.3093 86.5265 44.944C86.3558 43.5787 86.0358 42.4267 85.5665 41.488C85.1398 40.5067 84.5212 39.76 83.7105 39.248C82.9425 38.736 81.9612 38.48 80.7665 38.48ZM66.1745 50.512C66.1745 47.8667 66.5372 45.4773 67.2625 43.344C67.9878 41.2107 68.9905 39.3973 70.2705 37.904C71.5932 36.4107 73.1932 35.2587 75.0705 34.448C76.9478 33.6373 79.0385 33.232 81.3425 33.232C85.6945 33.232 89.0652 34.6187 91.4545 37.392C93.8865 40.1653 95.1025 44.048 95.1025 49.04C95.1025 51.728 94.7398 54.16 94.0145 56.336C93.2892 58.512 92.2652 60.3893 90.9425 61.968C89.6198 63.504 88.0198 64.6987 86.1425 65.552C84.3078 66.3627 82.2598 66.768 79.9985 66.768C77.8652 66.768 75.9452 66.384 74.2385 65.616C72.5318 64.848 71.0812 63.76 69.8865 62.352C68.6918 60.944 67.7745 59.2373 67.1345 57.232C66.4945 55.2267 66.1745 52.9867 66.1745 50.512ZM137.837 21.2C137.709 22.5653 137.602 23.9733 137.517 25.424C137.474 26.832 137.431 28.4107 137.389 30.16C137.389 31.8667 137.367 33.7867 137.325 35.92C137.325 38.0533 137.325 40.4853 137.325 43.216C137.325 45.776 137.325 48.1013 137.325 50.192C137.325 52.24 137.325 54.16 137.325 55.952C137.367 57.744 137.389 59.4507 137.389 61.072C137.431 62.6933 137.474 64.336 137.517 66H128.493C128.535 64.208 128.578 62.6293 128.621 61.264C128.663 59.856 128.706 58.4267 128.749 56.976C128.834 55.5253 128.898 53.968 128.941 52.304C128.983 50.64 129.005 48.6133 129.005 46.224H110.189C110.189 48.272 110.189 50.192 110.189 51.984C110.189 53.7333 110.189 55.4187 110.189 57.04C110.231 58.6187 110.253 60.1547 110.253 61.648C110.295 63.0987 110.338 64.5493 110.381 66H101.357C101.399 63.952 101.442 62.16 101.485 60.624C101.57 59.0453 101.634 57.424 101.677 55.76C101.719 54.0533 101.762 52.112 101.805 49.936C101.847 47.76 101.869 45.0293 101.869 41.744C101.869 38.4587 101.847 35.1947 101.805 31.952C101.762 28.6667 101.677 25.296 101.549 21.84L110.701 21.2C110.573 22.4373 110.466 23.7173 110.381 25.04C110.338 26.32 110.295 27.728 110.253 29.264C110.253 30.7573 110.231 32.4213 110.189 34.256C110.189 36.048 110.189 38.0747 110.189 40.336H129.005C129.005 37.3067 128.962 34.2773 128.877 31.248C128.834 28.176 128.77 25.04 128.685 21.84L137.837 21.2ZM152.56 66.768C149.872 66.768 147.696 65.8507 146.032 64.016C144.411 62.1813 143.6 59.792 143.6 56.848C143.6 53.776 144.496 51.3227 146.288 49.488C148.08 47.6533 150.469 46.736 153.456 46.736C154.693 46.736 155.931 46.9067 157.168 47.248C158.405 47.5893 159.515 48.08 160.496 48.72V45.136C160.496 43.1307 160.112 41.7227 159.344 40.912C158.576 40.1013 157.253 39.696 155.376 39.696C154.096 39.696 152.731 39.8667 151.28 40.208C149.872 40.5067 148.741 40.8907 147.888 41.36L145.904 35.216C146.544 34.96 147.312 34.704 148.208 34.448C149.104 34.192 150.064 33.9787 151.088 33.808C152.112 33.6373 153.157 33.5093 154.224 33.424C155.291 33.296 156.272 33.232 157.168 33.232C164.677 33.232 168.432 36.9013 168.432 44.24C168.432 44.88 168.389 45.8187 168.304 47.056C168.261 48.2933 168.197 49.5947 168.112 50.96C168.069 52.2827 168.005 53.52 167.92 54.672C167.877 55.824 167.856 56.6347 167.856 57.104C167.856 58.0853 168.005 58.7893 168.304 59.216C168.603 59.6427 169.157 59.856 169.968 59.856C170.523 59.856 171.163 59.7707 171.888 59.6L170.864 65.744C170.181 65.9573 169.541 66.128 168.944 66.256C168.389 66.384 167.813 66.448 167.216 66.448C165.637 66.448 164.315 66.0213 163.248 65.168C162.181 64.272 161.541 63.0133 161.328 61.392C160.475 63.056 159.28 64.3787 157.744 65.36C156.208 66.2987 154.48 66.768 152.56 66.768ZM155.632 60.88C156.997 60.88 158.149 60.3893 159.088 59.408C160.069 58.4267 160.56 57.1893 160.56 55.696C160.56 54.416 160.176 53.392 159.408 52.624C158.64 51.856 157.573 51.472 156.208 51.472C154.8 51.472 153.691 51.8987 152.88 52.752C152.069 53.6053 151.664 54.7787 151.664 56.272C151.664 57.68 152.005 58.8107 152.688 59.664C153.413 60.4747 154.395 60.88 155.632 60.88ZM198.347 66.768C197.494 65.5307 196.811 64.464 196.299 63.568C195.787 62.672 195.403 61.7333 195.147 60.752C194.507 61.4773 193.824 62.2027 193.099 62.928C192.374 63.6107 191.563 64.2507 190.667 64.848C189.814 65.4027 188.896 65.8507 187.915 66.192C186.934 66.576 185.867 66.768 184.715 66.768C183.648 66.768 182.603 66.576 181.579 66.192C180.598 65.808 179.723 65.168 178.955 64.272C178.187 63.376 177.568 62.16 177.099 60.624C176.63 59.088 176.395 57.168 176.395 54.864C176.395 54.3093 176.395 53.456 176.395 52.304C176.438 51.1093 176.48 49.872 176.523 48.592C176.566 47.2693 176.587 46.0107 176.587 44.816C176.63 43.6213 176.651 42.704 176.651 42.064C176.651 40.656 176.544 39.312 176.331 38.032C176.16 36.7093 175.84 35.6213 175.371 34.768L184.139 33.232C184.438 34.2133 184.608 35.28 184.651 36.432C184.736 37.584 184.779 38.5867 184.779 39.44C184.779 40.6773 184.736 41.9147 184.651 43.152C184.608 44.3893 184.544 45.6053 184.459 46.8C184.416 47.952 184.352 49.0613 184.267 50.128C184.224 51.152 184.203 52.048 184.203 52.816C184.203 55.3333 184.63 57.0613 185.483 58C186.336 58.9387 187.51 59.408 189.003 59.408C190.24 59.408 191.307 59.1947 192.203 58.768C193.099 58.3413 193.91 57.8293 194.635 57.232C194.592 56.464 194.571 55.6107 194.571 54.672C194.571 53.6907 194.571 52.5813 194.571 51.344C194.571 49.3813 194.571 47.6107 194.571 46.032C194.571 44.4533 194.55 42.9813 194.507 41.616C194.507 40.2507 194.486 38.9707 194.443 37.776C194.443 36.5387 194.422 35.28 194.379 34H203.019C202.976 35.024 202.934 36.176 202.891 37.456C202.848 38.736 202.784 40.1013 202.699 41.552C202.656 42.96 202.614 44.432 202.571 45.968C202.528 47.4613 202.507 48.912 202.507 50.32C202.507 51.984 202.55 53.3493 202.635 54.416C202.72 55.44 202.891 56.3573 203.147 57.168C203.403 57.936 203.744 58.6613 204.171 59.344C204.598 59.984 205.152 60.7307 205.835 61.584L198.347 66.768ZM219.671 16.72C219.543 18.2133 219.436 19.7493 219.351 21.328C219.308 22.9067 219.265 24.656 219.223 26.576C219.223 28.4533 219.201 30.5653 219.159 32.912C219.159 35.2587 219.159 37.9467 219.159 40.976C219.159 43.792 219.159 46.352 219.159 48.656C219.159 50.9173 219.159 53.0293 219.159 54.992C219.201 56.9547 219.223 58.832 219.223 60.624C219.265 62.3733 219.308 64.1653 219.351 66H210.711C210.753 63.7813 210.796 61.8187 210.839 60.112C210.924 58.4053 210.988 56.6347 211.031 54.8C211.073 52.9227 211.116 50.8107 211.159 48.464C211.201 46.0747 211.223 43.088 211.223 39.504C211.223 35.8773 211.201 32.2507 211.159 28.624C211.116 24.9547 211.031 21.2 210.903 17.36L219.671 16.72Z" fill="white"/>
<circle cx="247" cy="8" r="8" fill="#E1EAE9"/>
</svg>
