<svg width="175" height="57" viewBox="0 0 175 57" fill="none" xmlns="http://www.w3.org/2000/svg">
<path d="M20.5556 31.8266H9.16018C9.16018 33.6674 9.16018 35.3475 9.16018 36.8669C9.16018 38.3571 9.17479 39.7596 9.20401 41.0745H22.747V45.3697H3.11183C3.14105 43.9671 3.17027 42.7399 3.19949 41.6881C3.25793 40.607 3.30175 39.4966 3.33097 38.3571C3.36019 37.1883 3.38941 35.8589 3.41863 34.3687C3.44785 32.8785 3.46246 31.0085 3.46246 28.7586C3.46246 26.5088 3.44785 24.2004 3.41863 21.8337C3.38941 19.4377 3.33097 17.0564 3.24332 14.6896H21.9143V18.9848H9.24783C9.1894 20.1244 9.16018 21.4246 9.16018 22.8856C9.16018 24.3173 9.16018 25.9536 9.16018 27.7944H20.5556V31.8266ZM25.674 35.8589C25.674 33.6674 25.9077 31.7682 26.3752 30.1611C26.8719 28.5249 27.5586 27.1808 28.4352 26.1289C29.3117 25.0478 30.3344 24.2443 31.5032 23.7183C32.7012 23.1924 34.0014 22.9294 35.4039 22.9294C36.3097 22.9294 37.0548 23.0171 37.6392 23.1924C38.2528 23.3385 38.9248 23.4115 39.6553 23.4115C39.9767 23.4115 40.2835 23.3823 40.5757 23.3239C40.8679 23.2654 41.3062 23.1486 41.8905 22.9732L42.3727 31.476L38.0775 32.0458C38.1067 31.7536 38.1213 31.4906 38.1213 31.2569C38.1505 30.9939 38.1651 30.7163 38.1651 30.4241C38.1651 28.8171 37.8729 27.6775 37.2885 27.0055C36.7334 26.3042 36.1344 25.9536 35.4916 25.9536C34.0891 25.9536 33.0518 26.6841 32.3797 28.145C31.7077 29.606 31.3717 31.7536 31.3717 34.5878C31.3717 36.9838 31.7515 38.7077 32.5112 39.7596C33.3001 40.8115 34.4397 41.3374 35.9299 41.3374C36.9525 41.3374 37.9606 41.1621 38.954 40.8115C39.9767 40.4316 40.8679 40.081 41.6276 39.7596V43.6165C40.6926 44.4639 39.5676 45.0482 38.2528 45.3697C36.9671 45.7203 35.6523 45.8956 34.3082 45.8956C33.2271 45.8956 32.1606 45.7641 31.1087 45.5011C30.086 45.2382 29.1656 44.7561 28.3475 44.0548C27.5586 43.3243 26.9158 42.3017 26.4191 40.9868C25.9223 39.6719 25.674 37.9626 25.674 35.8589ZM55.3107 26.5234C53.9374 26.5234 52.8855 27.2538 52.155 28.7148C51.4245 30.1465 51.0593 32.1188 51.0593 34.6317C51.0593 37.0861 51.3515 38.9999 51.9359 40.3732C52.5495 41.7173 53.6013 42.3893 55.0915 42.3893C56.4648 42.3893 57.5313 41.6442 58.291 40.1541C59.0507 38.6347 59.4305 36.6186 59.4305 34.1057C59.4305 32.9369 59.3721 31.8851 59.2552 30.9501C59.1384 30.015 58.9192 29.2261 58.5978 28.5833C58.3056 27.9113 57.8819 27.3999 57.3268 27.0493C56.8008 26.6987 56.1288 26.5234 55.3107 26.5234ZM45.3177 34.7631C45.3177 32.9516 45.5661 31.3153 46.0628 29.8543C46.5595 28.3934 47.2462 27.1516 48.1228 26.1289C49.0286 25.1062 50.1243 24.3173 51.4099 23.7622C52.6956 23.207 54.1273 22.9294 55.7051 22.9294C58.6855 22.9294 60.9938 23.879 62.63 25.7783C64.2955 27.6775 65.1283 30.3365 65.1283 33.7551C65.1283 35.5959 64.8799 37.2614 64.3832 38.7515C63.8865 40.2417 63.1852 41.5274 62.2794 42.6085C61.3736 43.6603 60.2779 44.4785 58.9923 45.0629C57.7358 45.618 56.3333 45.8956 54.7847 45.8956C53.3238 45.8956 52.0089 45.6326 50.8401 45.1067C49.6714 44.5807 48.6779 43.8357 47.8598 42.8714C47.0417 41.9072 46.4135 40.7384 45.9752 39.3651C45.5369 37.9918 45.3177 36.4578 45.3177 34.7631ZM94.3934 14.6896C94.3058 15.6247 94.2327 16.5889 94.1743 17.5823C94.1451 18.5466 94.1159 19.6277 94.0866 20.8256C94.0866 21.9944 94.072 23.3093 94.0428 24.7702C94.0428 26.2312 94.0428 27.8967 94.0428 29.7667C94.0428 31.5198 94.0428 33.1123 94.0428 34.544C94.0428 35.9465 94.0428 37.2614 94.0428 38.4886C94.072 39.7158 94.0866 40.8845 94.0866 41.9949C94.1159 43.1052 94.1451 44.2301 94.1743 45.3697H87.9945C88.0237 44.1425 88.0529 43.0614 88.0821 42.1263C88.1113 41.1621 88.1406 40.1833 88.1698 39.1898C88.2282 38.1964 88.272 37.1299 88.3013 35.9903C88.3305 34.8508 88.3451 33.4629 88.3451 31.8266H75.4595C75.4595 33.2291 75.4595 34.544 75.4595 35.7712C75.4595 36.9692 75.4595 38.1233 75.4595 39.2337C75.4887 40.3148 75.5033 41.3666 75.5033 42.3893C75.5325 43.3828 75.5618 44.3762 75.591 45.3697H69.4111C69.4404 43.9671 69.4696 42.7399 69.4988 41.6881C69.5572 40.607 69.6011 39.4966 69.6303 38.3571C69.6595 37.1883 69.6887 35.8589 69.7179 34.3687C69.7472 32.8785 69.7618 31.0085 69.7618 28.7586C69.7618 26.5088 69.7472 24.2735 69.7179 22.0528C69.6887 19.803 69.6303 17.4947 69.5426 15.1279L75.8101 14.6896C75.7225 15.537 75.6494 16.4136 75.591 17.3194C75.5618 18.1959 75.5325 19.1602 75.5033 20.212C75.5033 21.2347 75.4887 22.3743 75.4595 23.6307C75.4595 24.8579 75.4595 26.2458 75.4595 27.7944H88.3451C88.3451 25.7198 88.3159 23.6453 88.2574 21.5707C88.2282 19.467 88.1844 17.3194 88.1259 15.1279L94.3934 14.6896ZM104.476 45.8956C102.636 45.8956 101.145 45.2674 100.006 44.011C98.8956 42.7546 98.3404 41.1183 98.3404 39.1022C98.3404 36.9984 98.954 35.3183 100.181 34.0619C101.408 32.8055 103.045 32.1773 105.09 32.1773C105.937 32.1773 106.785 32.2941 107.632 32.5279C108.479 32.7616 109.239 33.0977 109.911 33.5359V31.0815C109.911 29.7082 109.648 28.744 109.122 28.1888C108.596 27.6337 107.691 27.3561 106.405 27.3561C105.528 27.3561 104.593 27.473 103.6 27.7067C102.636 27.9113 101.861 28.1742 101.277 28.4956L99.9182 24.2881C100.357 24.1128 100.882 23.9375 101.496 23.7622C102.11 23.5868 102.767 23.4408 103.468 23.3239C104.17 23.207 104.885 23.1193 105.616 23.0609C106.346 22.9732 107.018 22.9294 107.632 22.9294C112.775 22.9294 115.346 25.4423 115.346 30.4679C115.346 30.9062 115.317 31.549 115.258 32.3964C115.229 33.2437 115.185 34.1349 115.127 35.0699C115.098 35.9757 115.054 36.8231 114.995 37.612C114.966 38.4009 114.951 38.9561 114.951 39.2775C114.951 39.9495 115.054 40.4316 115.258 40.7238C115.463 41.016 115.843 41.1621 116.398 41.1621C116.778 41.1621 117.216 41.1037 117.713 40.9868L117.011 45.1943C116.544 45.3404 116.106 45.4573 115.697 45.545C115.317 45.6326 114.922 45.6765 114.513 45.6765C113.432 45.6765 112.526 45.3843 111.796 44.7999C111.065 44.1863 110.627 43.3243 110.481 42.214C109.897 43.3535 109.078 44.2593 108.027 44.9314C106.975 45.5742 105.791 45.8956 104.476 45.8956ZM106.58 41.8634C107.515 41.8634 108.304 41.5274 108.947 40.8553C109.619 40.1833 109.955 39.3359 109.955 38.3133C109.955 37.4367 109.692 36.7354 109.166 36.2095C108.64 35.6835 107.91 35.4206 106.975 35.4206C106.01 35.4206 105.251 35.7128 104.696 36.2971C104.14 36.8815 103.863 37.685 103.863 38.7077C103.863 39.6719 104.097 40.4462 104.564 41.0306C105.061 41.5858 105.733 41.8634 106.58 41.8634ZM135.832 45.8956C135.248 45.0482 134.78 44.3178 134.43 43.7042C134.079 43.0906 133.816 42.4478 133.641 41.7757C133.203 42.2724 132.735 42.7692 132.238 43.2659C131.742 43.7334 131.187 44.1717 130.573 44.5807C129.989 44.9606 129.36 45.2674 128.688 45.5011C128.016 45.7641 127.286 45.8956 126.497 45.8956C125.766 45.8956 125.051 45.7641 124.349 45.5011C123.677 45.2382 123.078 44.7999 122.552 44.1863C122.026 43.5727 121.603 42.7399 121.281 41.6881C120.96 40.6362 120.799 39.3213 120.799 37.7435C120.799 37.3636 120.799 36.7793 120.799 35.9903C120.828 35.1722 120.858 34.3249 120.887 33.4483C120.916 32.5425 120.931 31.6805 120.931 30.8624C120.96 30.0443 120.974 29.4161 120.974 28.9778C120.974 28.0135 120.901 27.0931 120.755 26.2166C120.638 25.3108 120.419 24.5657 120.098 23.9813L126.102 22.9294C126.307 23.6015 126.424 24.3319 126.453 25.1208C126.511 25.9098 126.541 26.5964 126.541 27.1808C126.541 28.0281 126.511 28.8755 126.453 29.7229C126.424 30.5702 126.38 31.4029 126.322 32.2211C126.292 33.01 126.248 33.7697 126.19 34.5002C126.161 35.2014 126.146 35.815 126.146 36.341C126.146 38.0649 126.438 39.2483 127.023 39.8911C127.607 40.5339 128.411 40.8553 129.433 40.8553C130.281 40.8553 131.011 40.7092 131.625 40.417C132.238 40.1248 132.794 39.7742 133.29 39.3651C133.261 38.8392 133.246 38.2548 133.246 37.612C133.246 36.94 133.246 36.1803 133.246 35.3329C133.246 33.9888 133.246 32.7762 133.246 31.6951C133.246 30.614 133.232 29.606 133.203 28.671C133.203 27.736 133.188 26.8594 133.159 26.0412C133.159 25.1939 133.144 24.3319 133.115 23.4554H139.032C139.003 24.1566 138.973 24.9455 138.944 25.8221C138.915 26.6987 138.871 27.6337 138.813 28.6271C138.783 29.5914 138.754 30.5994 138.725 31.6513C138.696 32.674 138.681 33.6674 138.681 34.6317C138.681 35.7712 138.71 36.7062 138.769 37.4367C138.827 38.1379 138.944 38.7662 139.119 39.3213C139.295 39.8473 139.529 40.344 139.821 40.8115C140.113 41.2498 140.493 41.7611 140.96 42.3455L135.832 45.8956ZM150.435 11.6216C150.347 12.6443 150.274 13.6962 150.216 14.7773C150.187 15.8584 150.158 17.0564 150.128 18.3712C150.128 19.6569 150.114 21.1032 150.085 22.7103C150.085 24.3173 150.085 26.1581 150.085 28.2327C150.085 30.1611 150.085 31.9143 150.085 33.4921C150.085 35.0407 150.085 36.4871 150.085 37.8311C150.114 39.1752 150.128 40.4609 150.128 41.6881C150.158 42.886 150.187 44.1132 150.216 45.3697H144.299C144.328 43.8503 144.358 42.5062 144.387 41.3374C144.445 40.1687 144.489 38.9561 144.518 37.6997C144.547 36.414 144.577 34.9677 144.606 33.3606C144.635 31.7244 144.65 29.679 144.65 27.2246C144.65 24.741 144.635 22.2574 144.606 19.7738C144.577 17.2609 144.518 14.6896 144.431 12.0599L150.435 11.6216Z" fill="#1C3530"/>
<circle cx="169.151" cy="5.47857" r="5.47857" fill="#E1EAE9"/>
</svg>
